<?xml version="1.0" encoding="UTF-8"?>
<svg xmlns="http://www.w3.org/2000/svg" viewBox="0 0 400 400" width="400" height="400">
  <rect width="400" height="400" fill="#0E1F33"/>
  <g transform="translate(62.96, 245.75)" fill="#F5F0E6"><path d="M62.80 2.94L62.80 2.94Q55.01 2.94 49.40 1.09Q43.80-0.76 40.23-2.56Q36.67-4.37 34.96-4.37L34.96-4.37Q33.06-4.37 31.82-3.23Q30.59-2.09 29.50-0.62Q28.41 0.85 27.17 2.00Q25.93 3.14 24.13 3.14L24.13 3.14Q22.14 3.14 20.85 1.95Q19.57 0.76 19.09-2.00L19.09-2.00L12.54-32.97Q12.16-35.05 13.06-36.58Q13.96-38.09 16.05-38.76L16.05-38.76Q18.34-39.52 20.05-38.66Q21.75-37.81 22.99-35.34L22.99-35.34Q28.41-24.70 34.53-18.43Q40.66-12.16 47.31-9.50Q53.96-6.84 60.90-6.84L60.90-6.84Q70.58-6.84 76.19-11.88Q81.80-16.91 81.80-25.37L81.80-25.37Q81.89-30.88 79.33-35.29Q76.76-39.71 69.64-43.89Q62.51-48.07 48.55-52.63L48.55-52.63Q34.10-57.29 25.41-63.41Q16.72-69.54 12.82-77.71Q8.93-85.88 8.93-96.71L8.93-96.71Q8.93-108.20 14.39-116.95Q19.86-125.69 29.78-130.58Q39.71-135.47 53.01-135.47L53.01-135.47Q61.56-135.47 67.17-133.71Q72.77-131.96 76.38-130.15Q79.99-128.34 82.36-128.34L82.36-128.34Q84.45-128.34 85.59-130.20Q86.73-132.05 88.06-133.90Q89.39-135.75 92.06-135.75L92.06-135.75Q94.14-135.75 95.52-134.43Q96.90-133.09 97.95-129.49L97.95-129.49L106.88-98.33Q107.64-95.86 106.73-93.91Q105.83-91.96 103.64-91.30L103.64-91.30Q101.46-90.53 99.70-91.44Q97.95-92.34 96.81-94.53L96.81-94.53Q90.92-106.31 84.22-113.10Q77.52-119.89 70.39-122.84Q63.27-125.78 55.95-125.78L55.95-125.78Q46.27-125.78 40.52-120.22Q34.77-114.67 34.77-105.73L34.77-105.73Q34.77-100.32 37.29-95.67Q39.80-91.01 46.84-86.59Q53.87-82.17 67.17-77.23L67.17-77.23Q81.89-72.01 90.58-65.93Q99.28-59.85 103.03-52.20Q106.78-44.55 106.78-34.67L106.78-34.67Q106.78-24.32 101.56-15.77Q96.33-7.22 86.55-2.14Q76.76 2.94 62.80 2.94ZM163.31-42.56L158.94-51.77L217.64-109.25Q221.16-112.67 222.25-115.33Q223.34-117.99 222.30-119.84Q221.25-121.70 218.31-122.74L218.31-122.74L213.46-123.98Q211.28-124.64 210.38-125.78Q209.47-126.92 209.47-128.63L209.47-128.63Q209.47-130.72 210.90-131.86Q212.32-133 215.27-133L215.27-133L252.42-133Q255.45-133 256.88-131.86Q258.31-130.72 258.31-128.63L258.31-128.63Q258.31-126.83 257.12-125.83Q255.93-124.83 252.42-123.59L252.42-123.59Q250.89-123.22 249.38-122.45Q247.86-121.70 245.72-120.13Q243.58-118.56 240.21-115.57Q236.83-112.58 231.51-107.73L231.51-107.73L163.31-42.56ZM216.22-16.91L182.69-70.30L205.39-89.02L250.80-16.72Q252.89-13.39 255.03-11.88Q257.17-10.36 259.92-9.69L259.92-9.69Q262.96-8.74 264.05-7.41Q265.14-6.08 265.14-4.37L265.14-4.37Q265.14-2.38 263.67-1.19Q262.20 0 259.16 0L259.16 0L213.27 0Q210.24 0 208.81-1.19Q207.38-2.38 207.38-4.46L207.38-4.46Q207.38-6.17 208.33-7.36Q209.28-8.55 211.00-9.03L211.00-9.03L215.94-9.97Q217.93-10.54 218.02-12.16Q218.12-13.78 216.22-16.91L216.22-16.91ZM169.10-117.14L169.10-15.87Q169.10-13.78 170.14-12.45Q171.19-11.12 173.28-10.45L173.28-10.45L178.13-9.21Q180.50-8.27 181.31-7.22Q182.12-6.17 182.12-4.37L182.12-4.37Q182.12-2.38 180.74-1.19Q179.36 0 176.41 0L176.41 0L131.29 0Q128.34 0 126.92-1.19Q125.49-2.38 125.49-4.37L125.49-4.37Q125.49-7.98 129.48-9.21L129.48-9.21L134.90-10.45Q137.28-11.12 138.46-12.45Q139.65-13.78 139.65-15.87L139.65-15.87L139.65-117.14Q139.65-119.22 138.46-120.56Q137.28-121.89 134.90-122.55L134.90-122.55L129.48-123.78Q125.49-125.02 125.49-128.63L125.49-128.63Q125.49-130.72 126.92-131.86Q128.34-133 131.29-133L131.29-133L177.56-133Q180.50-133 181.88-131.86Q183.25-130.72 183.25-128.63L183.25-128.63Q183.25-125.02 179.26-123.78L179.26-123.78L173.85-122.55Q171.57-121.89 170.33-120.56Q169.10-119.22 169.10-117.14L169.10-117.14Z"/></g>
  <line x1="42.36250000000001" y1="281.25" x2="92.36250000000001" y2="281.25" stroke="#C9A24B" stroke-width="1.5" stroke-linecap="round"/>
  <g transform="translate(106.36, 292.89)" fill="#C9A24B"><path d="M4.656 0L0.797 0L9.078-23.281L13.453-23.281L21.891 0L18.031 0L13.500-12.953Q12.969-14.531 12.336-16.672Q11.703-18.813 10.875-21.813L10.875-21.813L11.594-21.813Q10.797-18.781 10.164-16.617Q9.531-14.453 9.047-12.953L9.047-12.953L4.656 0ZM17.391-6.141L5.281-6.141L5.281-9.109L17.391-9.109L17.391-6.141Z"/><path d="M45.927 0.313L45.927 0.313Q42.771 0.313 40.388-1.141Q38.005-2.594 36.669-5.273Q35.333-7.953 35.333-11.625L35.333-11.625Q35.333-15.344 36.685-18.023Q38.036-20.703 40.396-22.148Q42.755-23.594 45.771-23.594L45.771-23.594Q47.646-23.594 49.278-23.039Q50.911-22.484 52.200-21.461Q53.489-20.438 54.325-19.023Q55.161-17.609 55.443-15.922L55.443-15.922L51.786-15.922Q51.474-16.938 50.927-17.758Q50.380-18.578 49.622-19.156Q48.864-19.734 47.903-20.039Q46.943-20.344 45.802-20.344L45.802-20.344Q43.833-20.344 42.263-19.344Q40.693-18.344 39.778-16.398Q38.864-14.453 38.864-11.641L38.864-11.641Q38.864-8.828 39.778-6.891Q40.693-4.953 42.286-3.945Q43.880-2.938 45.943-2.938L45.943-2.938Q47.818-2.938 49.216-3.695Q50.614-4.453 51.388-5.852Q52.161-7.250 52.161-9.156L52.161-9.156L53.083-9L46.458-9L46.458-11.938L55.646-11.938L55.646-9.266Q55.646-6.328 54.388-4.180Q53.130-2.031 50.943-0.859Q48.755 0.313 45.927 0.313Z"/><path d="M85.698 0L70.948 0L70.948-23.281L85.604-23.281L85.604-20.219L74.510-20.219L74.510-13.281L84.807-13.281L84.807-10.234L74.510-10.234L74.510-3.063L85.698-3.063L85.698 0Z"/><path d="M104.734 0L101.124 0L101.124-23.281L105.234-23.281L113.999-9.422Q114.437-8.734 114.984-7.781Q115.531-6.828 116.140-5.633Q116.749-4.438 117.343-3.031L117.343-3.031L116.906-3.031Q116.765-4.359 116.695-5.664Q116.624-6.969 116.593-8.109Q116.562-9.250 116.562-10.031L116.562-10.031L116.562-23.281L120.171-23.281L120.171 0L116.046 0L108.187-12.391Q107.562-13.406 106.960-14.438Q106.359-15.469 105.632-16.820Q104.906-18.172 103.859-20.109L103.859-20.109L104.421-20.109Q104.499-18.391 104.578-16.898Q104.656-15.406 104.695-14.258Q104.734-13.109 104.734-12.422L104.734-12.422L104.734 0Z"/><path d="M145.879 0.313L145.879 0.313Q142.864 0.313 140.489-1.117Q138.114-2.547 136.754-5.227Q135.395-7.906 135.395-11.625L135.395-11.625Q135.395-15.359 136.754-18.039Q138.114-20.719 140.489-22.156Q142.864-23.594 145.879-23.594L145.879-23.594Q147.723-23.594 149.340-23.063Q150.958-22.531 152.231-21.516Q153.504-20.500 154.340-19.047Q155.176-17.594 155.473-15.750L155.473-15.750L151.895-15.750Q151.676-16.859 151.122-17.711Q150.567-18.563 149.770-19.156Q148.973-19.750 147.989-20.047Q147.004-20.344 145.911-20.344L145.911-20.344Q143.911-20.344 142.325-19.336Q140.739-18.328 139.833-16.383Q138.926-14.438 138.926-11.625L138.926-11.625Q138.926-8.813 139.848-6.867Q140.770-4.922 142.348-3.930Q143.926-2.938 145.911-2.938L145.911-2.938Q147.004-2.938 147.981-3.242Q148.958-3.547 149.762-4.133Q150.567-4.719 151.122-5.578Q151.676-6.438 151.895-7.531L151.895-7.531L155.489-7.531Q155.223-5.813 154.411-4.383Q153.598-2.953 152.333-1.891Q151.067-0.828 149.434-0.258Q147.801 0.313 145.879 0.313Z"/><path d="M185.306 0L170.556 0L170.556-23.281L185.213-23.281L185.213-20.219L174.119-20.219L174.119-13.281L184.416-13.281L184.416-10.234L174.119-10.234L174.119-3.063L185.306-3.063L185.306 0Z"/></g>
  <line x1="307.64" y1="281.25" x2="357.64" y2="281.25" stroke="#C9A24B" stroke-width="1.5" stroke-linecap="round"/>
</svg>
