<?xml version="1.0" encoding="UTF-8"?>
<svg xmlns="http://www.w3.org/2000/svg" viewBox="0 0 1200 630" width="1200" height="630">
  <defs>
    <radialGradient id="halo" cx="52%" cy="42%" r="52%">
      <stop offset="0%" stop-color="#C9A24B" stop-opacity="0.22"/>
      <stop offset="35%" stop-color="#C9A24B" stop-opacity="0.09"/>
      <stop offset="72%" stop-color="#C9A24B" stop-opacity="0"/>
    </radialGradient>
  </defs>

  <rect width="1200" height="630" fill="#0E1F33"/>
  <rect width="1200" height="630" fill="url(#halo)"/>
  <rect x="16" y="16" width="1168" height="598" rx="4" ry="4" fill="none" stroke="#C9A24B" stroke-opacity="0.28" stroke-width="1"/>

  <!-- Brandmark -->
  <line x1="90" y1="105" x2="194" y2="105" stroke="#C9A24B" stroke-width="1"/>
  <path d="M673 -23Q500 -23 372.5 31Q245 85 173 188Q101 291 95 438L358 438Q365 360 407 308Q449 256 518 230.5Q587 205 671 205Q759 205 826.5 232Q894 259 932 307.5Q970 356 970 420Q970 478 936.5 516Q903 554 842.5 580.5Q782 607 701 627L532 671Q345 719 240.5 816Q136 913 136 1071Q136 1203 207 1302Q278 1401 401 1455.5Q524 1510 680 1510Q839 1510 959 1455Q1079 1400 1146.5 1303Q1214 1206 1217 1082L958 1082Q948 1178 872.5 1230.5Q797 1283 676 1283Q592 1283 531.5 1257.5Q471 1232 438.5 1188Q406 1144 406 1087Q406 1025 444.5 985Q483 945 541.5 921Q600 897 660 882L799 846Q882 826 960 793Q1038 760 1100.5 709.5Q1163 659 1200 587Q1237 515 1237 418Q1237 287 1170 187.5Q1103 88 977 32.5Q851 -23 673 -23Z" transform="translate(210.00 112.00) scale(0.012695 -0.012695)" fill="#C9A24B"/>
  <path d="M343 367L343 620Q391 698 437.5 766.5Q484 835 536.5 902Q589 969 654 1044L1045 1490L1377 1490L745 777L725 784ZM150 0L150 1490L417 1490L417 1048L412 689L417 558L417 0ZM1072 0L598 701L766 902L1387 0Z" transform="translate(235.21 112.00) scale(0.012695 -0.012695)" fill="#C9A24B"/>
  <path d="M326 547Q259 547 212.5 593Q166 639 166 707Q166 774 212.5 820Q259 866 326 866Q394 866 440.5 820Q487 774 487 707Q487 639 440.5 593Q394 547 326 547Z" transform="translate(276.64 112.00) scale(0.012695 -0.012695)" fill="#C9A24B"/>
  <path d="M50 0L570 1490L909 1490L1441 0L1148 0L883 774Q844 894 802 1045.5Q760 1197 709 1390L765 1390Q715 1195 674.5 1042.5Q634 890 598 774L342 0ZM353 369L353 584L1138 584L1138 369Z" transform="translate(308.07 112.00) scale(0.012695 -0.012695)" fill="#C9A24B"/>
  <path d="M793 -20Q587 -20 432 73Q277 166 190 337Q103 508 103 743Q103 984 192.5 1155.5Q282 1327 436 1418.5Q590 1510 785 1510Q908 1510 1014.5 1474Q1121 1438 1204.5 1371.5Q1288 1305 1341.5 1214Q1395 1123 1412 1014L1139 1014Q1121 1074 1089.5 1121Q1058 1168 1013.5 1202Q969 1236 912.5 1253.5Q856 1271 788 1271Q668 1271 573.5 1210Q479 1149 425 1032Q371 915 371 745Q371 577 425 459.5Q479 342 574 280.5Q669 219 794 219Q908 219 991.5 263Q1075 307 1120.5 388Q1166 469 1166 579L1227 569L822 569L822 779L1425 779L1425 600Q1425 409 1343.5 269.5Q1262 130 1119.5 55Q977 -20 793 -20Z" transform="translate(334.27 112.00) scale(0.012695 -0.012695)" fill="#C9A24B"/>
  <path d="M150 0L150 1490L1118 1490L1118 1265L417 1265L417 863L1066 863L1066 641L417 641L417 225L1122 225L1122 0Z" transform="translate(362.04 112.00) scale(0.012695 -0.012695)" fill="#C9A24B"/>
  <path d="M150 0L150 1490L452 1490L967 669Q999 618 1035 553.5Q1071 489 1110 409.5Q1149 330 1187 233L1157 233Q1150 317 1144.5 405.5Q1139 494 1136.5 573.5Q1134 653 1134 708L1134 1490L1405 1490L1405 0L1102 0L637 739Q593 810 554 879Q515 948 470 1035Q425 1122 361 1245L399 1245Q405 1136 410 1038.5Q415 941 418.5 864Q422 787 422 740L422 0Z" transform="translate(386.08 112.00) scale(0.012695 -0.012695)" fill="#C9A24B"/>
  <path d="M785 -20Q589 -20 435 71Q281 162 192 333Q103 504 103 744Q103 985 192.5 1156.5Q282 1328 436.5 1419Q591 1510 785 1510Q907 1510 1013.5 1475.5Q1120 1441 1203.5 1374.5Q1287 1308 1341 1212Q1395 1116 1413 994L1144 994Q1131 1061 1099.5 1112Q1068 1163 1021 1198.5Q974 1234 915 1252.5Q856 1271 789 1271Q667 1271 572.5 1209.5Q478 1148 424.5 1030.5Q371 913 371 744Q371 573 425 456Q479 339 573.5 279Q668 219 788 219Q855 219 914 237.5Q973 256 1020.5 291.5Q1068 327 1100 378.5Q1132 430 1144 496L1414 496Q1399 389 1348.5 295.5Q1298 202 1216 131Q1134 60 1025.5 20Q917 -20 785 -20Z" transform="translate(414.12 112.00) scale(0.012695 -0.012695)" fill="#C9A24B"/>
  <path d="M150 0L150 1490L1118 1490L1118 1265L417 1265L417 863L1066 863L1066 641L417 641L417 225L1122 225L1122 0Z" transform="translate(441.57 112.00) scale(0.012695 -0.012695)" fill="#C9A24B"/>

  <!-- Titre Fraunces italique 400 -->
  <path d="M1030 1376Q1030 1388 1038 1394Q1046 1400 1058 1400L1421 1400Q1437 1400 1444.5 1394Q1452 1388 1452 1379Q1452 1368 1445.5 1361Q1439 1354 1423 1349L1391 1340Q1359 1329 1328.5 1301.5Q1298 1274 1267.5 1234.5Q1237 1195 1205 1144L594 187Q583 169 574 151Q565 133 557 112L539 45Q533 25 520 12.5Q507 0 484 0L346 0Q325 0 316 15.5Q307 31 315 53L337 132Q345 152 345.5 170.5Q346 189 345 208Q346 232 347.5 288Q349 344 349 423.5Q349 503 349.5 595.5Q350 688 350 783.5Q350 879 350.5 969.5Q351 1060 351 1134.5Q351 1209 350 1258Q351 1294 342 1313Q333 1332 309 1337L253 1350Q240 1354 234.5 1360Q229 1366 229 1376Q229 1386 239.5 1393Q250 1400 263 1400L701 1400Q715 1400 721 1394.5Q727 1389 727 1379Q727 1368 720.5 1361Q714 1354 700 1350L609 1335Q580 1329 568.5 1306Q557 1283 556 1243Q554 1187 553.5 1110.5Q553 1034 552 942Q551 850 550.5 749Q550 648 549.5 545Q549 442 547.5 342.5Q546 243 545 153L492 123L1144 1153Q1175 1203 1176.5 1240.5Q1178 1278 1158.5 1304Q1139 1330 1106 1339L1058 1350Q1030 1359 1030 1376Z" transform="translate(90.00 290.00) scale(0.042000 -0.042000)" fill="#F5F0E6"/>
  <path d="M595 914Q708 911 787 856Q866 801 900 702Q934 603 912 464Q895 360 847.5 270.5Q800 181 729.5 115.5Q659 50 570.5 14.5Q482 -21 382 -19Q274 -16 193.5 35.5Q113 87 77 186.5Q41 286 63 424Q82 536 130 627Q178 718 249 783Q320 848 408.5 883Q497 918 595 914ZM385 35Q426 32 468.5 56.5Q511 81 549.5 126.5Q588 172 620.5 233Q653 294 677 366.5Q701 439 713 518Q735 632 725 706Q715 780 681 817.5Q647 855 594 859Q552 863 510 839Q468 815 429 770.5Q390 726 356.5 663.5Q323 601 298 527Q273 453 260 373Q238 255 249.5 182Q261 109 296.5 73.5Q332 38 385 35Z" transform="translate(134.46 290.00) scale(0.042000 -0.042000)" fill="#F5F0E6"/>
  <path d="M247 823L167 836Q156 840 150.5 846.5Q145 853 145 862Q145 873 154 879.5Q163 886 180 886L276 886Q293 886 305.5 892.5Q318 899 329 911L470 1064Q478 1073 487.5 1077.5Q497 1082 508 1082Q519 1082 525 1076Q531 1070 531 1058Q531 1051 529 1039Q527 1027 522 1010L297 247Q270 152 283.5 121Q297 90 341 90Q381 90 420.5 113Q460 136 503 189Q512 199 518 202.5Q524 206 531 205Q538 205 541.5 198.5Q545 192 543 180Q530 146 500.5 110.5Q471 75 428.5 45Q386 15 333 -2Q280 -19 220 -19Q156 -19 122 6.5Q88 32 84.5 83.5Q81 135 104 215L264 750Q275 788 271.5 803.5Q268 819 247 823ZM415 831L434 885L678 885Q702 885 702 865Q702 849 688 840Q674 831 649 831Z" transform="translate(173.99 290.00) scale(0.042000 -0.042000)" fill="#F5F0E6"/>
  <path d="M117 719Q110 723 110 732.5Q110 742 118 756Q148 805 188 840.5Q228 876 274.5 894Q321 912 369 912Q418 912 444 889Q470 866 470 821Q470 784 456 737Q442 690 421 634.5Q400 579 378.5 518Q357 457 343 392L332 393Q365 509 413 604Q461 699 517.5 768Q574 837 635 874.5Q696 912 756 912Q821 912 853 872.5Q885 833 882 771Q879 725 862 692Q845 659 818 642Q791 625 759 625Q726 625 708 641Q690 657 690 682Q690 703 695.5 721.5Q701 740 701 759Q701 782 692 795.5Q683 809 661 809Q620 809 563.5 754.5Q507 700 449 594Q391 488 341 329Q321 263 309.5 221Q298 179 298 146Q298 124 307 111.5Q316 99 326 89Q336 79 336 63Q336 44 313 24Q290 4 249 -8Q208 -20 155 -20Q114 -20 96.5 -3Q79 14 80 49Q81 84 98 136L262 649Q290 735 283.5 767Q277 799 250 799Q231 799 208 785Q185 771 149 732Q139 723 131.5 719.5Q124 716 117 719Z" transform="translate(199.99 290.00) scale(0.042000 -0.042000)" fill="#F5F0E6"/>
  <path d="M162 418Q162 418 199.5 432Q237 446 298 468.5Q359 491 426.5 516Q494 541 555 564Q616 587 656 602L635 577Q643 599 648 630.5Q653 662 654 706Q654 776 628 820.5Q602 865 557 865Q511 865 462.5 830.5Q414 796 371.5 733Q329 670 298.5 584Q268 498 257 394Q242 244 294.5 166.5Q347 89 452 89Q512 89 567 113Q622 137 668 185Q714 233 743 303Q752 317 759.5 322.5Q767 328 775 328Q786 327 791.5 318Q797 309 791 289Q766 202 707 132Q648 62 558 21.5Q468 -19 350 -19Q247 -19 177 24Q107 67 76.5 148.5Q46 230 57 347Q69 462 115 565Q161 668 233.5 746Q306 824 396 869Q486 914 585 914Q660 914 711.5 883Q763 852 788 801Q813 750 815 687Q816 674 823 666.5Q830 659 843 660Q854 660 859 656Q864 652 864 643Q865 634 856.5 626Q848 618 826 609Q799 601 740.5 580Q682 559 607.5 531.5Q533 504 456 477Q379 450 313.5 426.5Q248 403 208 388.5Q168 374 168 374Z" transform="translate(233.44 290.00) scale(0.042000 -0.042000)" fill="#F5F0E6"/>
  <path d="M331 30Q399 30 441 67Q483 104 484 161Q484 192 471.5 220.5Q459 249 426 285.5Q393 322 331 374Q265 430 226 472Q187 514 170 553.5Q153 593 154 643Q156 716 201 778Q246 840 327.5 877Q409 914 520 914Q608 914 669 891Q730 868 761.5 829Q793 790 793 747Q794 711 777.5 690.5Q761 670 731 670Q703 670 681.5 689.5Q660 709 641 760Q618 815 583 842Q548 869 499 869Q426 869 379.5 827.5Q333 786 334 719Q333 686 345.5 654.5Q358 623 393 583.5Q428 544 496 486Q564 430 601.5 388Q639 346 653.5 308Q668 270 665 225Q663 154 618 99Q573 44 494.5 12.5Q416 -19 310 -19Q217 -19 151.5 9Q86 37 51.5 81.5Q17 126 17 174Q18 207 33 227.5Q48 248 77 248Q107 248 129.5 226.5Q152 205 171 155Q203 86 242.5 58Q282 30 331 30Z" transform="translate(283.96 290.00) scale(0.042000 -0.042000)" fill="#F5F0E6"/>
  <path d="M309 234Q280 151 288.5 119.5Q297 88 322 88Q342 88 365 102.5Q388 117 420 155Q431 165 438 168.5Q445 172 452 168Q460 165 459.5 154.5Q459 144 451 128Q412 60 347.5 21Q283 -18 204 -18Q148 -18 119 6Q90 30 88.5 77.5Q87 125 111 194L272 648Q302 734 295 766.5Q288 799 260 799Q242 799 219 785Q196 771 161 732Q149 723 142 719.5Q135 716 128 719Q121 723 121.5 733Q122 743 130 756Q173 829 238.5 870.5Q304 912 378 912Q429 912 458 887.5Q487 863 491 813.5Q495 764 468 689ZM441 1083Q388 1083 361 1111Q334 1139 337 1180Q339 1217 361.5 1253Q384 1289 421.5 1313.5Q459 1338 505 1338Q561 1338 586 1310.5Q611 1283 608 1242Q606 1203 583 1166.5Q560 1130 523.5 1106.5Q487 1083 441 1083Z" transform="translate(316.04 290.00) scale(0.042000 -0.042000)" fill="#F5F0E6"/>
  <path d="M247 823L167 836Q156 840 150.5 846.5Q145 853 145 862Q145 873 154 879.5Q163 886 180 886L276 886Q293 886 305.5 892.5Q318 899 329 911L470 1064Q478 1073 487.5 1077.5Q497 1082 508 1082Q519 1082 525 1076Q531 1070 531 1058Q531 1051 529 1039Q527 1027 522 1010L297 247Q270 152 283.5 121Q297 90 341 90Q381 90 420.5 113Q460 136 503 189Q512 199 518 202.5Q524 206 531 205Q538 205 541.5 198.5Q545 192 543 180Q530 146 500.5 110.5Q471 75 428.5 45Q386 15 333 -2Q280 -19 220 -19Q156 -19 122 6.5Q88 32 84.5 83.5Q81 135 104 215L264 750Q275 788 271.5 803.5Q268 819 247 823ZM415 831L434 885L678 885Q702 885 702 865Q702 849 688 840Q674 831 649 831Z" transform="translate(338.87 290.00) scale(0.042000 -0.042000)" fill="#F5F0E6"/>
  <path d="M162 418Q162 418 199.5 432Q237 446 298 468.5Q359 491 426.5 516Q494 541 555 564Q616 587 656 602L635 577Q643 599 648 630.5Q653 662 654 706Q654 776 628 820.5Q602 865 557 865Q511 865 462.5 830.5Q414 796 371.5 733Q329 670 298.5 584Q268 498 257 394Q242 244 294.5 166.5Q347 89 452 89Q512 89 567 113Q622 137 668 185Q714 233 743 303Q752 317 759.5 322.5Q767 328 775 328Q786 327 791.5 318Q797 309 791 289Q766 202 707 132Q648 62 558 21.5Q468 -19 350 -19Q247 -19 177 24Q107 67 76.5 148.5Q46 230 57 347Q69 462 115 565Q161 668 233.5 746Q306 824 396 869Q486 914 585 914Q660 914 711.5 883Q763 852 788 801Q813 750 815 687Q816 674 823 666.5Q830 659 843 660Q854 660 859 656Q864 652 864 643Q865 634 856.5 626Q848 618 826 609Q799 601 740.5 580Q682 559 607.5 531.5Q533 504 456 477Q379 450 313.5 426.5Q248 403 208 388.5Q168 374 168 374Z" transform="translate(364.45 290.00) scale(0.042000 -0.042000)" fill="#F5F0E6"/>
  <path d="M162 418Q162 418 199.5 432Q237 446 298 468.5Q359 491 426.5 516Q494 541 555 564Q616 587 656 602L635 577Q643 599 648 630.5Q653 662 654 706Q654 776 628 820.5Q602 865 557 865Q511 865 462.5 830.5Q414 796 371.5 733Q329 670 298.5 584Q268 498 257 394Q242 244 294.5 166.5Q347 89 452 89Q512 89 567 113Q622 137 668 185Q714 233 743 303Q752 317 759.5 322.5Q767 328 775 328Q786 327 791.5 318Q797 309 791 289Q766 202 707 132Q648 62 558 21.5Q468 -19 350 -19Q247 -19 177 24Q107 67 76.5 148.5Q46 230 57 347Q69 462 115 565Q161 668 233.5 746Q306 824 396 869Q486 914 585 914Q660 914 711.5 883Q763 852 788 801Q813 750 815 687Q816 674 823 666.5Q830 659 843 660Q854 660 859 656Q864 652 864 643Q865 634 856.5 626Q848 618 826 609Q799 601 740.5 580Q682 559 607.5 531.5Q533 504 456 477Q379 450 313.5 426.5Q248 403 208 388.5Q168 374 168 374Z" transform="translate(414.96 290.00) scale(0.042000 -0.042000)" fill="#F5F0E6"/>
  <path d="M121 719Q114 723 115 732.5Q116 742 123 756Q167 829 234 870.5Q301 912 376 912Q426 912 454.5 889Q483 866 483 820Q483 790 470.5 748Q458 706 438 654Q418 602 394.5 543.5Q371 485 350 421L345 444Q401 576 468.5 665.5Q536 755 606 810Q676 865 742 888.5Q808 912 863 912Q936 912 967.5 879.5Q999 847 996.5 786Q994 725 966 644L829 235Q801 149 809.5 118.5Q818 88 843 88Q863 88 885.5 102Q908 116 941 154Q952 165 959.5 168Q967 171 973 167Q982 165 981 154Q980 143 972 129Q933 60 869 20.5Q805 -19 724 -19Q669 -19 640.5 5.5Q612 30 610.5 77Q609 124 631 194L771 617Q806 718 794.5 756Q783 794 733 794Q696 794 645.5 767.5Q595 741 540 685.5Q485 630 432 544Q379 458 339 337Q317 275 305 236Q293 197 288.5 173Q284 149 284 134Q284 111 291.5 96.5Q299 82 299 61Q299 26 255.5 3.5Q212 -19 137 -19Q82 -19 71 16Q60 51 86 126L265 649Q295 734 288.5 766.5Q282 799 254 799Q235 799 212.5 785Q190 771 153 732Q143 723 136 719.5Q129 716 121 719Z" transform="translate(450.63 290.00) scale(0.042000 -0.042000)" fill="#F5F0E6"/>
  <path d="M694 1443Q764 1443 797.5 1416.5Q831 1390 831 1353Q831 1319 809.5 1297Q788 1275 746 1275Q719 1275 696.5 1284.5Q674 1294 653 1307.5Q632 1321 610 1330.5Q588 1340 564 1340Q538 1340 515 1323.5Q492 1307 477.5 1279Q463 1251 461 1221Q460 1199 467 1177.5Q474 1156 484 1133Q494 1110 501.5 1083.5Q509 1057 509.5 1025Q510 993 498 953L284 245Q257 152 265 121Q273 90 304 90Q329 90 360 108Q391 126 425 168Q434 178 440 181Q446 184 453 180Q460 178 461.5 168Q463 158 456 143Q433 96 391 59.5Q349 23 295.5 2Q242 -19 183 -19Q124 -19 95 5Q66 29 64 78Q62 127 84 201L382 1188Q423 1319 500.5 1381Q578 1443 694 1443Z" transform="translate(509.64 290.00) scale(0.042000 -0.042000)" fill="#F5F0E6"/>
  <path d="M309 234Q280 151 288.5 119.5Q297 88 322 88Q342 88 365 102.5Q388 117 420 155Q431 165 438 168.5Q445 172 452 168Q460 165 459.5 154.5Q459 144 451 128Q412 60 347.5 21Q283 -18 204 -18Q148 -18 119 6Q90 30 88.5 77.5Q87 125 111 194L272 648Q302 734 295 766.5Q288 799 260 799Q242 799 219 785Q196 771 161 732Q149 723 142 719.5Q135 716 128 719Q121 723 121.5 733Q122 743 130 756Q173 829 238.5 870.5Q304 912 378 912Q429 912 458 887.5Q487 863 491 813.5Q495 764 468 689ZM441 1083Q388 1083 361 1111Q334 1139 337 1180Q339 1217 361.5 1253Q384 1289 421.5 1313.5Q459 1338 505 1338Q561 1338 586 1310.5Q611 1283 608 1242Q606 1203 583 1166.5Q560 1130 523.5 1106.5Q487 1083 441 1083Z" transform="translate(531.77 290.00) scale(0.042000 -0.042000)" fill="#F5F0E6"/>
  <path d="M737 12Q695 -164 604.5 -277Q514 -390 383 -444Q252 -498 88 -498Q-12 -498 -62.5 -467Q-113 -436 -113 -388Q-113 -355 -89 -332.5Q-65 -310 -23 -310Q13 -310 44 -327Q75 -344 105 -367Q135 -390 166 -407.5Q197 -425 231 -425Q288 -425 342.5 -396.5Q397 -368 440.5 -304Q484 -240 510 -136L654 423L674 409Q618 267 547.5 171.5Q477 76 397 28.5Q317 -19 233 -19Q171 -19 123.5 10Q76 39 53 99Q30 159 39 255Q49 358 88 455Q127 552 191.5 635Q256 718 340 780.5Q424 843 524.5 878.5Q625 914 736 914Q808 914 860 904Q912 894 939 877.5Q966 861 964 843Q964 826 954 818.5Q944 811 933.5 802.5Q923 794 919 778ZM237 266Q229 191 241.5 148.5Q254 106 277 89Q300 72 327 72Q375 72 427 113.5Q479 155 529 227Q579 299 621 388.5Q663 478 691.5 574Q720 670 729 761Q735 809 725.5 834Q716 859 683 859Q624 859 563 826Q502 793 447.5 735.5Q393 678 348.5 602.5Q304 527 275 441Q246 355 237 266Z" transform="translate(554.95 290.00) scale(0.042000 -0.042000)" fill="#F5F0E6"/>
  <path d="M121 719Q114 723 115 732.5Q116 742 123 756Q167 829 234 870.5Q301 912 376 912Q426 912 454.5 889Q483 866 483 820Q483 790 470.5 748Q458 706 438 654Q418 602 394.5 543.5Q371 485 350 421L345 444Q401 576 468.5 665.5Q536 755 606 810Q676 865 742 888.5Q808 912 863 912Q936 912 967.5 879.5Q999 847 996.5 786Q994 725 966 644L829 235Q801 149 809.5 118.5Q818 88 843 88Q863 88 885.5 102Q908 116 941 154Q952 165 959.5 168Q967 171 973 167Q982 165 981 154Q980 143 972 129Q933 60 869 20.5Q805 -19 724 -19Q669 -19 640.5 5.5Q612 30 610.5 77Q609 124 631 194L771 617Q806 718 794.5 756Q783 794 733 794Q696 794 645.5 767.5Q595 741 540 685.5Q485 630 432 544Q379 458 339 337Q317 275 305 236Q293 197 288.5 173Q284 149 284 134Q284 111 291.5 96.5Q299 82 299 61Q299 26 255.5 3.5Q212 -19 137 -19Q82 -19 71 16Q60 51 86 126L265 649Q295 734 288.5 766.5Q282 799 254 799Q235 799 212.5 785Q190 771 153 732Q143 723 136 719.5Q129 716 121 719Z" transform="translate(594.42 290.00) scale(0.042000 -0.042000)" fill="#F5F0E6"/>
  <path d="M162 418Q162 418 199.5 432Q237 446 298 468.5Q359 491 426.5 516Q494 541 555 564Q616 587 656 602L635 577Q643 599 648 630.5Q653 662 654 706Q654 776 628 820.5Q602 865 557 865Q511 865 462.5 830.5Q414 796 371.5 733Q329 670 298.5 584Q268 498 257 394Q242 244 294.5 166.5Q347 89 452 89Q512 89 567 113Q622 137 668 185Q714 233 743 303Q752 317 759.5 322.5Q767 328 775 328Q786 327 791.5 318Q797 309 791 289Q766 202 707 132Q648 62 558 21.5Q468 -19 350 -19Q247 -19 177 24Q107 67 76.5 148.5Q46 230 57 347Q69 462 115 565Q161 668 233.5 746Q306 824 396 869Q486 914 585 914Q660 914 711.5 883Q763 852 788 801Q813 750 815 687Q816 674 823 666.5Q830 659 843 660Q854 660 859 656Q864 652 864 643Q865 634 856.5 626Q848 618 826 609Q799 601 740.5 580Q682 559 607.5 531.5Q533 504 456 477Q379 450 313.5 426.5Q248 403 208 388.5Q168 374 168 374Z" transform="translate(639.02 290.00) scale(0.042000 -0.042000)" fill="#F5F0E6"/>
  <path d="M787 243Q762 151 767.5 119Q773 87 800 87Q820 87 841.5 101Q863 115 896 153Q907 164 914 167Q921 170 928 167Q936 164 936 153.5Q936 143 927 127Q888 60 824.5 20.5Q761 -19 688 -19Q635 -19 609 7.5Q583 34 583 84Q583 106 587.5 135Q592 164 602 206.5Q612 249 629.5 310.5Q647 372 672 454L686 434Q633 293 562.5 191.5Q492 90 409 35.5Q326 -19 237 -19Q136 -19 83.5 52.5Q31 124 48 280Q59 377 99.5 470Q140 563 205 643.5Q270 724 354 784Q438 844 536 878.5Q634 913 738 913Q814 913 866 902.5Q918 892 945 875Q972 858 972 840Q970 824 960 815.5Q950 807 939 798Q928 789 924 773ZM244 272Q229 163 255.5 116.5Q282 70 328 70Q369 70 414.5 102.5Q460 135 507 195.5Q554 256 597 341Q640 426 677.5 531.5Q715 637 742 761Q753 810 742.5 834.5Q732 859 698 859Q635 859 573 826Q511 793 456.5 735.5Q402 678 357 603.5Q312 529 283 443.5Q254 358 244 272ZM644 1230L695 1030Q699 1023 698 1016Q697 1009 690 1003Q683 999 675 999.5Q667 1000 660 1003L515 1141Q485 1166 468 1193Q451 1220 458 1255Q463 1283 488.5 1307.5Q514 1332 551 1335Q592 1338 612.5 1309Q633 1280 644 1230Z" transform="translate(689.53 290.00) scale(0.042000 -0.042000)" fill="#F5F0E6"/>
  <path d="M694 1443Q764 1443 797.5 1416.5Q831 1390 831 1353Q831 1319 809.5 1297Q788 1275 746 1275Q719 1275 696.5 1284.5Q674 1294 653 1307.5Q632 1321 610 1330.5Q588 1340 564 1340Q538 1340 515 1323.5Q492 1307 477.5 1279Q463 1251 461 1221Q460 1199 467 1177.5Q474 1156 484 1133Q494 1110 501.5 1083.5Q509 1057 509.5 1025Q510 993 498 953L284 245Q257 152 265 121Q273 90 304 90Q329 90 360 108Q391 126 425 168Q434 178 440 181Q446 184 453 180Q460 178 461.5 168Q463 158 456 143Q433 96 391 59.5Q349 23 295.5 2Q242 -19 183 -19Q124 -19 95 5Q66 29 64 78Q62 127 84 201L382 1188Q423 1319 500.5 1381Q578 1443 694 1443Z" transform="translate(745.78 290.00) scale(0.042000 -0.042000)" fill="#F5F0E6"/>
  <path d="M787 243Q762 151 767.5 119Q773 87 800 87Q820 87 841.5 101Q863 115 896 153Q907 164 914 167Q921 170 928 167Q936 164 936 153.5Q936 143 927 127Q888 60 824.5 20.5Q761 -19 688 -19Q635 -19 609 7.5Q583 34 583 84Q583 106 587.5 135Q592 164 602 206.5Q612 249 629.5 310.5Q647 372 672 454L686 434Q633 293 562.5 191.5Q492 90 409 35.5Q326 -19 237 -19Q136 -19 83.5 52.5Q31 124 48 280Q59 377 99.5 470Q140 563 205 643.5Q270 724 354 784Q438 844 536 878.5Q634 913 738 913Q814 913 866 902.5Q918 892 945 875Q972 858 972 840Q970 824 960 815.5Q950 807 939 798Q928 789 924 773ZM244 272Q229 163 255.5 116.5Q282 70 328 70Q369 70 414.5 102.5Q460 135 507 195.5Q554 256 597 341Q640 426 677.5 531.5Q715 637 742 761Q753 810 742.5 834.5Q732 859 698 859Q635 859 573 826Q511 793 456.5 735.5Q402 678 357 603.5Q312 529 283 443.5Q254 358 244 272Z" transform="translate(767.82 290.00) scale(0.042000 -0.042000)" fill="#F5F0E6"/>

  <!-- Accent Caveat 700 or -->
  <path d="M374 -19Q361 -22 348.5 -12.5Q336 -3 331 8Q325 24 323.5 38.5Q322 53 321 72L320 106L279 69Q245 37 215.5 23.5Q186 10 162 10Q151 12 135.5 24.5Q120 37 107.5 52.5Q95 68 90 78Q84 92 86.5 117Q89 142 98.5 172Q108 202 122.5 231Q137 260 156 281Q189 331 238 343.5Q287 356 325 335Q343 326 351 328Q359 330 361 341Q365 357 370 371Q375 385 384 413Q409 489 427.5 532Q446 575 461 607Q472 630 483 639Q494 648 502 647Q513 647 529.5 639Q546 631 551 617Q555 608 554.5 598Q554 588 548 577Q535 553 517.5 513.5Q500 474 482.5 427Q465 380 450 334Q435 288 425 253Q419 231 415.5 197Q412 163 410.5 127.5Q409 92 410 64.5Q411 37 413 29Q419 9 413 -1Q407 -11 396 -14.5Q385 -18 374 -19ZM209 102Q223 107 234 114Q245 121 260 132Q290 155 303.5 172Q317 189 325 214Q330 229 325.5 240Q321 251 310 261Q299 270 282 268.5Q265 267 243 247Q219 225 202 196Q185 167 174 113Q172 103 181 99Q190 95 209 102Z" transform="translate(86.00 475.00) scale(0.200000 -0.200000)" fill="#C9A24B"/>
  <path d="M124 21Q120 29 106.5 37Q93 45 93 49Q93 53 88.5 61.5Q84 70 80 74Q75 80 83 103.5Q91 127 107 161Q123 195 142 230Q150 238 158 251Q166 264 170 268Q170 272 173 275.5Q176 279 180 279L188 295Q190 299 200.5 311Q211 323 226 337.5Q241 352 256.5 365Q272 378 282 384Q303 398 325.5 397Q348 396 364 383Q367 380 377.5 371Q388 362 401.5 351Q415 340 425 331L462 298L445 248Q432 208 438.5 178Q445 148 457 126Q462 115 470.5 109Q479 103 493 101Q501 100 508 95Q515 90 515 79Q515 55 506.5 44.5Q498 34 488 32Q455 28 425 39Q395 50 371 96Q367 102 360.5 118.5Q354 135 353 140Q349 135 342.5 127.5Q336 120 330 114Q259 42 208.5 20.5Q158 -1 124 21ZM179 104Q186 103 201 111.5Q216 120 241 140Q275 169 297 188Q319 207 340 237L362 273Q352 296 344 303Q336 310 328 310Q315 310 297 293.5Q279 277 256.5 245.5Q234 214 206 167Q193 145 186 124.5Q179 104 179 104Z" transform="translate(166.40 475.00) scale(0.200000 -0.200000)" fill="#C9A24B"/>
  <path d="M171 -1Q160 1 147 12.5Q134 24 123.5 38.5Q113 53 110 63Q110 65 107.5 68Q105 71 105 71Q101 74 100.5 97.5Q100 121 103 150Q106 179 110 196Q115 212 125 239.5Q135 267 142 289L169 347L129 358Q122 360 117.5 366Q113 372 113 376Q113 384 122 399Q131 414 135 414Q140 413 153.5 413Q167 413 180 414Q193 415 196 416Q200 418 204 421.5Q208 425 210 432Q215 443 219 449Q223 455 230 467Q237 480 241.5 489Q246 498 256 514Q261 521 267 531Q273 541 282 548Q291 556 311.5 559.5Q332 563 347 550Q355 540 356 531Q357 522 348 508Q340 491 329.5 477.5Q319 464 310 447Q294 425 304 422Q314 419 360 426Q389 431 402 420Q415 409 417 392Q420 368 412 363Q404 358 366 358Q342 354 325 353.5Q308 353 300 353Q287 352 283 352Q279 352 271 350Q263 348 259.5 343.5Q256 339 252 331Q248 327 240 310Q232 293 220 273Q206 231 196.5 192.5Q187 154 180 116Q177 97 181.5 88.5Q186 80 207 78Q218 77 239 78.5Q260 80 274 84Q285 89 297 94.5Q309 100 319 106Q328 111 337 116.5Q346 122 346 122Q351 130 360.5 119.5Q370 109 374 97Q374 85 369 68.5Q364 52 332 34Q287 6 242 0Q197 -6 171 -1Z" transform="translate(255.60 475.00) scale(0.200000 -0.200000)" fill="#C9A24B"/>
  <path d="M293 20Q263 3 229.5 0.5Q196 -2 167 9.5Q138 21 120 44Q110 57 101 85.5Q92 114 98 163Q104 209 126.5 256Q149 303 182 339Q215 375 254 388Q268 393 282.5 395.5Q297 398 321 396Q344 393 362 384.5Q380 376 388 366Q404 350 409 335Q414 320 413 306Q408 274 384.5 237Q361 200 319 182Q302 175 279 173Q256 171 216 179Q192 184 184.5 174Q177 164 178 135Q180 117 186.5 103.5Q193 90 211 85Q234 81 244 84.5Q254 88 269 95Q277 100 284.5 106Q292 112 299.5 118Q307 124 312 127Q317 131 322 132Q327 133 332 133Q343 132 353 121Q363 110 366 100Q366 92 356 77.5Q346 63 329.5 47.5Q313 32 293 20ZM280 243Q287 246 300.5 257Q314 268 325 280.5Q336 293 336 300Q336 311 321.5 319Q307 327 284 322Q276 320 265 311Q254 302 243 290.5Q232 279 224 268.5Q216 258 213 252Q217 247 229 244Q241 241 255.5 241Q270 241 280 243Z" transform="translate(321.80 475.00) scale(0.200000 -0.200000)" fill="#C9A24B"/>
  <path d="M61 -233Q57 -233 49.5 -233.5Q42 -234 37 -225Q33 -220 25 -205.5Q17 -191 22 -165Q27 -148 30 -131.5Q33 -115 33 -107Q33 -103 35.5 -91.5Q38 -80 38 -75Q43 -67 46 -53Q49 -39 49 -28Q49 -16 61 -6Q61 2 64.5 14Q68 26 68 30Q71 44 81.5 79.5Q92 115 107.5 160Q123 205 138 248Q153 291 165 321Q177 349 185 373Q193 397 193 407Q193 411 195 413.5Q197 416 204 424Q214 434 230.5 431.5Q247 429 258 421Q266 408 269.5 397.5Q273 387 269 365Q269 350 262 337.5Q255 325 249.5 317.5Q244 310 246 311Q290 338 325.5 340.5Q361 343 385.5 328.5Q410 314 423 289Q436 264 436 235Q436 223 428 203Q420 183 410 165.5Q400 148 394 142Q390 142 386 135.5Q382 129 378 121Q370 111 351.5 98.5Q333 86 314 78.5Q295 71 287 74Q287 74 284.5 72Q282 70 282 65Q282 63 268 57Q254 51 235 46Q216 41 200 41Q179 41 170 49Q168 47 165.5 43Q163 39 163 36Q163 30 158.5 17Q154 4 148 -6.5Q142 -17 137 -17Q137 -17 135 -20Q133 -23 137 -28Q137 -28 136.5 -39.5Q136 -51 131 -59Q131 -67 128 -83Q125 -99 121 -107Q121 -119 117.5 -130.5Q114 -142 110 -142Q106 -143 105 -154.5Q104 -166 104 -171Q103 -196 88 -214.5Q73 -233 61 -233ZM189 117Q197 117 218 124Q239 131 262 141.5Q285 152 298 163Q324 186 338.5 208Q353 230 336 257Q328 271 310.5 268.5Q293 266 272 252Q251 238 229 217Q217 204 207 187Q197 170 190.5 154Q184 138 183 127.5Q182 117 189 117Z" transform="translate(437.00 475.00) scale(0.200000 -0.200000)" fill="#C9A24B"/>
  <path d="M180 21Q177 20 167.5 22Q158 24 148.5 27Q139 30 137 32Q133 36 126 46.5Q119 57 118.5 75Q118 93 135 118Q140 128 147 148Q154 168 161.5 190.5Q169 213 175.5 231Q182 249 185 256Q187 273 183.5 280.5Q180 288 166 289Q156 289 150.5 296Q145 303 145 321Q147 335 152.5 345.5Q158 356 168 363Q178 368 193.5 370Q209 372 224 371Q239 370 245 364Q252 360 256.5 346.5Q261 333 264 319Q267 305 268 298Q278 306 290.5 320.5Q303 335 316 348Q332 359 354 370.5Q376 382 386 382Q397 382 413 371.5Q429 361 433 353Q443 336 447.5 317.5Q452 299 441 285Q431 272 413 259.5Q395 247 368 252Q362 254 355.5 267Q349 280 348 286Q348 289 339.5 280.5Q331 272 319.5 260Q308 248 298 238Q281 217 262 181Q243 145 217 94Q205 69 197 46.5Q189 24 180 21Z" transform="translate(512.60 475.00) scale(0.200000 -0.200000)" fill="#C9A24B"/>
  <path d="M168 7Q155 7 147.5 12Q140 17 129 26Q110 46 98.5 69Q87 92 90 109Q93 117 92.5 124.5Q92 132 92 132Q87 137 89 138.5Q91 140 93 144Q99 144 97 155Q95 163 103.5 189.5Q112 216 127 240Q133 250 145 266.5Q157 283 171.5 299.5Q186 316 198 326Q223 347 244.5 360Q266 373 288 378Q310 383 333.5 383Q357 383 372 367Q395 357 404.5 340Q414 323 417 296Q420 266 411 222.5Q402 179 362 122Q337 86 313 66Q289 46 260 29Q239 15 215 12Q191 9 168 7ZM270 129Q292 148 301.5 171Q311 194 322 225Q326 231 327.5 245Q329 259 328 272.5Q327 286 321 288Q312 295 303 291.5Q294 288 280 278Q250 253 224.5 220.5Q199 188 189 141Q186 116 194.5 103.5Q203 91 222.5 96.5Q242 102 270 129Z" transform="translate(584.60 475.00) scale(0.200000 -0.200000)" fill="#C9A24B"/>
  <path d="M566 24Q559 26 544 37Q529 48 517.5 70Q506 92 507 127Q508 157 511.5 169.5Q515 182 508 183Q503 184 488 174Q473 164 449 142Q425 120 391 84Q379 74 364.5 59.5Q350 45 335.5 38Q321 31 310 41L300 50Q293 56 288 66Q283 76 285 83L313 161Q325 187 329.5 199Q334 211 333.5 214Q333 217 328 216Q322 215 311 205.5Q300 196 296 190Q292 190 285.5 182Q279 174 273 168Q267 162 252 145.5Q237 129 220 111Q207 99 190 79Q173 59 160 43Q147 27 144 27Q126 28 111.5 39Q97 50 92 66Q86 77 91 106.5Q96 136 110 201Q114 216 117.5 227Q121 238 125 249Q129 260 134.5 274Q140 288 149 308Q154 322 153 334.5Q152 347 151 355Q151 370 160.5 379Q170 388 182 391.5Q194 395 201 393Q229 390 239 373Q249 356 250 340Q251 325 246 313Q241 301 238 293L227 266Q217 243 212.5 232.5Q208 222 207.5 218.5Q207 215 207 212Q208 209 216 215Q224 221 235.5 231.5Q247 242 257 250Q275 265 295.5 280.5Q316 296 336 308Q356 320 369 324Q386 321 400.5 307Q415 293 419 283Q424 268 420.5 256Q417 244 415 234Q414 230 411 219Q408 208 405 198.5Q402 189 402 189Q402 189 408 195Q414 201 424 209.5Q434 218 444 225Q494 263 523.5 273.5Q553 284 574 256Q586 245 589.5 226Q593 207 593 175Q594 162 595.5 146Q597 130 599.5 118Q602 106 604 103Q607 99 615 95.5Q623 92 630 90Q644 83 645.5 64.5Q647 46 631 36Q616 27 599.5 25Q583 23 566 24Z" transform="translate(657.00 475.00) scale(0.200000 -0.200000)" fill="#C9A24B"/>
  <path d="M103 17Q95 25 91.5 41Q88 57 89 72.5Q90 88 94 96Q94 104 96.5 108.5Q99 113 98 117Q97 121 100 131Q103 141 106 150Q113 166 122 191.5Q131 217 140 243.5Q149 270 155 289.5Q161 309 162 313Q162 325 178 326Q190 330 207 316Q224 302 234 286Q242 278 240 265Q238 252 227 228Q223 220 217.5 201.5Q212 183 210 171Q206 163 200.5 148.5Q195 134 191 121Q189 116 187 102.5Q185 89 182 75Q179 61 174 53Q165 12 142.5 5Q120 -2 103 17ZM211 418Q200 426 194.5 437.5Q189 449 188.5 458Q188 467 190 469Q200 480 207.5 498Q215 516 224 531Q226 534 229.5 539.5Q233 545 237 546Q249 554 270.5 545Q292 536 302 520Q311 501 307.5 481Q304 461 286 439Q271 419 248 413.5Q225 408 211 418Z" transform="translate(770.80 475.00) scale(0.200000 -0.200000)" fill="#C9A24B"/>
  <path d="M153 -6Q119 8 103.5 23.5Q88 39 91 51Q93 57 98 62Q103 67 120.5 66.5Q138 66 175 57Q186 57 197 58Q208 59 217.5 61Q227 63 233 66Q238 68 236 71.5Q234 75 229 79Q225 84 220 85.5Q215 87 211 87Q209 92 202.5 97Q196 102 187 108Q165 126 147 140Q129 154 133 161Q133 165 133 165.5Q133 166 133 166Q126 166 120 185.5Q114 205 114 221Q114 241 122.5 261Q131 281 144.5 299Q158 317 172 331Q191 349 212.5 366.5Q234 384 259.5 398Q285 412 316 420Q330 423 348 423Q366 423 374 418Q382 423 394 415.5Q406 408 418 395Q430 382 436 369Q436 357 435.5 339.5Q435 322 433 309Q431 296 424 296Q424 296 421.5 295.5Q419 295 419 290Q419 280 404 267Q385 254 368 246Q351 238 342 245Q336 249 331 253Q326 257 322 263Q322 263 319.5 267.5Q317 272 317 276Q317 280 320 283.5Q323 287 323 287Q337 300 344.5 311Q352 322 355 330.5Q358 339 358 344Q358 350 355.5 351.5Q353 353 345 353Q340 353 323.5 345Q307 337 289 325.5Q271 314 261 305Q257 298 255.5 296Q254 294 250 294Q250 298 245 293Q240 288 233 279Q226 270 219 260Q212 250 208 244Q207 235 203.5 227.5Q200 220 201 212Q202 202 211 193Q220 184 237 170Q272 144 289.5 129Q307 114 314 105Q321 96 323 87Q340 56 327 33.5Q314 11 287 -1Q277 -6 252 -10.5Q227 -15 199.5 -14.5Q172 -14 153 -6Z" transform="translate(810.00 475.00) scale(0.200000 -0.200000)" fill="#C9A24B"/>
  <path d="M293 20Q263 3 229.5 0.5Q196 -2 167 9.5Q138 21 120 44Q110 57 101 85.5Q92 114 98 163Q104 209 126.5 256Q149 303 182 339Q215 375 254 388Q268 393 282.5 395.5Q297 398 321 396Q344 393 362 384.5Q380 376 388 366Q404 350 409 335Q414 320 413 306Q408 274 384.5 237Q361 200 319 182Q302 175 279 173Q256 171 216 179Q192 184 184.5 174Q177 164 178 135Q180 117 186.5 103.5Q193 90 211 85Q234 81 244 84.5Q254 88 269 95Q277 100 284.5 106Q292 112 299.5 118Q307 124 312 127Q317 131 322 132Q327 133 332 133Q343 132 353 121Q363 110 366 100Q366 92 356 77.5Q346 63 329.5 47.5Q313 32 293 20ZM280 243Q287 246 300.5 257Q314 268 325 280.5Q336 293 336 300Q336 311 321.5 319Q307 327 284 322Q276 320 265 311Q254 302 243 290.5Q232 279 224 268.5Q216 258 213 252Q217 247 229 244Q241 241 255.5 241Q270 241 280 243Z" transform="translate(880.00 475.00) scale(0.200000 -0.200000)" fill="#C9A24B"/>
  <path d="M162 52Q141 45 127 45.5Q113 46 96 58Q76 78 82.5 98.5Q89 119 118 139Q138 151 147.5 151.5Q157 152 176 144Q210 123 206 97.5Q202 72 162 52Z" transform="translate(946.80 475.00) scale(0.200000 -0.200000)" fill="#C9A24B"/>

  <!-- Filet pied -->
  <line x1="90" y1="565" x2="1110" y2="565" stroke="#C9A24B" stroke-opacity="0.25" stroke-width="1"/>

  <!-- Pied gauche Inter 400 -->
  <path d="M657 -26Q496 -26 377.5 26Q259 78 192 171.5Q125 265 116 390L311 390Q319 306 368 251.5Q417 197 493.5 170.5Q570 144 657 144Q758 144 838.5 177Q919 210 966 270Q1013 330 1013 409Q1013 481 972.5 526Q932 571 865 600Q798 629 718 651L538 702Q358 753 258 848Q158 943 158 1091Q158 1217 226 1311.5Q294 1406 410 1458Q526 1510 670 1510Q817 1510 930 1458Q1043 1406 1108.5 1316.5Q1174 1227 1178 1114L992 1114Q979 1223 888 1282.5Q797 1342 664 1342Q568 1342 495.5 1310.5Q423 1279 383 1224.5Q343 1170 343 1100Q343 1022 391.5 974.5Q440 927 506.5 900.5Q573 874 627 859L776 818Q836 802 908.5 774Q981 746 1047 699.5Q1113 653 1155.5 581.5Q1198 510 1198 406Q1198 284 1134.5 186Q1071 88 950 31Q829 -26 657 -26Z" transform="translate(90.00 605.00) scale(0.014160 -0.014160)" fill="#C9CCD1"/>
  <path d="M598 1118L598 964L20 964L20 1118ZM188 1384L368 1384L368 290Q368 215 398.5 180.5Q429 146 500 146Q517 146 543.5 150Q570 154 592 158L629 6Q601 -4 565.5 -9Q530 -14 495 -14Q350 -14 269 62.5Q188 139 188 276Z" transform="translate(108.61 605.00) scale(0.014160 -0.014160)" fill="#C9CCD1"/>
  <path d="M537 -14Q424 -14 338.5 32.5Q253 79 205.5 173Q158 267 158 408L158 1118L338 1118L338 423Q338 294 406 221Q474 148 591 148Q671 148 734.5 183Q798 218 835 285.5Q872 353 872 448L872 1118L1053 1118L1053 0L879 0L879 271L903 271Q851 114 755.5 50Q660 -14 537 -14Z" transform="translate(118.09 605.00) scale(0.014160 -0.014160)" fill="#C9CCD1"/>
  <path d="M577 -24Q438 -24 331 47Q224 118 164 248Q104 378 104 556Q104 733 164.5 862.5Q225 992 332 1062Q439 1132 578 1132Q687 1132 751 1096Q815 1060 849.5 1014.5Q884 969 902 939L916 939L916 1490L1096 1490L1096 0L922 0L922 173L902 173Q884 142 848.5 95.5Q813 49 748.5 12.5Q684 -24 577 -24ZM604 137Q706 137 776 190.5Q846 244 882 339Q918 434 918 558Q918 682 882.5 774.5Q847 867 777 919Q707 971 604 971Q498 971 427.5 916Q357 861 322 767.5Q287 674 287 558Q287 441 322.5 345.5Q358 250 429 193.5Q500 137 604 137Z" transform="translate(135.24 605.00) scale(0.014160 -0.014160)" fill="#C9CCD1"/>
  <path d="M158 0L158 1118L338 1118L338 0ZM249 1301Q198 1301 161 1336Q124 1371 124 1420Q124 1470 161 1504.5Q198 1539 249 1539Q301 1539 338 1504.5Q375 1470 375 1420Q375 1371 338 1336Q301 1301 249 1301Z" transform="translate(153.00 605.00) scale(0.014160 -0.014160)" fill="#C9CCD1"/>
  <path d="M613 -24Q461 -24 346.5 48Q232 120 168 250Q104 380 104 552Q104 727 168 857.5Q232 988 346.5 1060Q461 1132 613 1132Q766 1132 881 1060Q996 988 1060 857.5Q1124 727 1124 552Q1124 380 1060 250Q996 120 881 48Q766 -24 613 -24ZM613 137Q726 137 799 195Q872 253 907 347.5Q942 442 942 552Q942 663 907 758.5Q872 854 799 912.5Q726 971 613 971Q501 971 429 912.5Q357 854 322 759Q287 664 287 552Q287 442 322 347.5Q357 253 429 195Q501 137 613 137Z" transform="translate(160.02 605.00) scale(0.014160 -0.014160)" fill="#C9CCD1"/>
  <path d="M577 -24Q438 -24 331 47Q224 118 164 248Q104 378 104 556Q104 733 164.5 862.5Q225 992 332 1062Q439 1132 578 1132Q687 1132 751 1096Q815 1060 849.5 1014.5Q884 969 902 939L916 939L916 1490L1096 1490L1096 0L922 0L922 173L902 173Q884 142 848.5 95.5Q813 49 748.5 12.5Q684 -24 577 -24ZM604 137Q706 137 776 190.5Q846 244 882 339Q918 434 918 558Q918 682 882.5 774.5Q847 867 777 919Q707 971 604 971Q498 971 427.5 916Q357 861 322 767.5Q287 674 287 558Q287 441 322.5 345.5Q358 250 429 193.5Q500 137 604 137Z" transform="translate(185.57 605.00) scale(0.014160 -0.014160)" fill="#C9CCD1"/>
  <path d="M628 -24Q466 -24 348.5 48Q231 120 167.5 249Q104 378 104 550Q104 722 166 853Q228 984 341.5 1058Q455 1132 607 1132Q696 1132 782.5 1102.5Q869 1073 939.5 1007.5Q1010 942 1052 835Q1094 728 1094 573L1094 498L226 498L226 650L997 650L913 594Q913 704 878.5 789.5Q844 875 776 923.5Q708 972 607 972Q506 972 434 922.5Q362 873 324 793.5Q286 714 286 623L286 522Q286 398 329 311.5Q372 225 449.5 180.5Q527 136 629 136Q695 136 749 155Q803 174 842 212.5Q881 251 902 308L1076 260Q1050 176 988 112Q926 48 834.5 12Q743 -24 628 -24Z" transform="translate(203.32 605.00) scale(0.014160 -0.014160)" fill="#C9CCD1"/>
  <path d="M577 -24Q438 -24 331 47Q224 118 164 248Q104 378 104 556Q104 733 164.5 862.5Q225 992 332 1062Q439 1132 578 1132Q687 1132 751 1096Q815 1060 849.5 1014.5Q884 969 902 939L916 939L916 1490L1096 1490L1096 0L922 0L922 173L902 173Q884 142 848.5 95.5Q813 49 748.5 12.5Q684 -24 577 -24ZM604 137Q706 137 776 190.5Q846 244 882 339Q918 434 918 558Q918 682 882.5 774.5Q847 867 777 919Q707 971 604 971Q498 971 427.5 916Q357 861 322 767.5Q287 674 287 558Q287 441 322.5 345.5Q358 250 429 193.5Q500 137 604 137Z" transform="translate(228.39 605.00) scale(0.014160 -0.014160)" fill="#C9CCD1"/>
  <path d="M628 -24Q466 -24 348.5 48Q231 120 167.5 249Q104 378 104 550Q104 722 166 853Q228 984 341.5 1058Q455 1132 607 1132Q696 1132 782.5 1102.5Q869 1073 939.5 1007.5Q1010 942 1052 835Q1094 728 1094 573L1094 498L226 498L226 650L997 650L913 594Q913 704 878.5 789.5Q844 875 776 923.5Q708 972 607 972Q506 972 434 922.5Q362 873 324 793.5Q286 714 286 623L286 522Q286 398 329 311.5Q372 225 449.5 180.5Q527 136 629 136Q695 136 749 155Q803 174 842 212.5Q881 251 902 308L1076 260Q1050 176 988 112Q926 48 834.5 12Q743 -24 628 -24ZM524 1264L664 1558L865 1558L671 1264Z" transform="translate(246.14 605.00) scale(0.014160 -0.014160)" fill="#C9CCD1"/>
  <path d="M481 0L54 1118L251 1118L489 455Q527 352 553.5 249.5Q580 147 609 51L543 51Q572 147 598.5 249.5Q625 352 662 455L900 1118L1097 1118L670 0Z" transform="translate(262.48 605.00) scale(0.014160 -0.014160)" fill="#C9CCD1"/>
  <path d="M628 -24Q466 -24 348.5 48Q231 120 167.5 249Q104 378 104 550Q104 722 166 853Q228 984 341.5 1058Q455 1132 607 1132Q696 1132 782.5 1102.5Q869 1073 939.5 1007.5Q1010 942 1052 835Q1094 728 1094 573L1094 498L226 498L226 650L997 650L913 594Q913 704 878.5 789.5Q844 875 776 923.5Q708 972 607 972Q506 972 434 922.5Q362 873 324 793.5Q286 714 286 623L286 522Q286 398 329 311.5Q372 225 449.5 180.5Q527 136 629 136Q695 136 749 155Q803 174 842 212.5Q881 251 902 308L1076 260Q1050 176 988 112Q926 48 834.5 12Q743 -24 628 -24Z" transform="translate(278.22 605.00) scale(0.014160 -0.014160)" fill="#C9CCD1"/>
  <path d="M338 1490L338 0L158 0L158 1490Z" transform="translate(295.12 605.00) scale(0.014160 -0.014160)" fill="#C9CCD1"/>
  <path d="M613 -24Q461 -24 346.5 48Q232 120 168 250Q104 380 104 552Q104 727 168 857.5Q232 988 346.5 1060Q461 1132 613 1132Q766 1132 881 1060Q996 988 1060 857.5Q1124 727 1124 552Q1124 380 1060 250Q996 120 881 48Q766 -24 613 -24ZM613 137Q726 137 799 195Q872 253 907 347.5Q942 442 942 552Q942 663 907 758.5Q872 854 799 912.5Q726 971 613 971Q501 971 429 912.5Q357 854 322 759Q287 664 287 552Q287 442 322 347.5Q357 253 429 195Q501 137 613 137Z" transform="translate(302.15 605.00) scale(0.014160 -0.014160)" fill="#C9CCD1"/>
  <path d="M158 -418L158 1118L332 1118L332 939L352 939Q371 969 405 1014.5Q439 1060 503 1096Q567 1132 676 1132Q816 1132 922.5 1062Q1029 992 1089.5 862.5Q1150 733 1150 556Q1150 378 1090 248Q1030 118 923.5 47Q817 -24 677 -24Q571 -24 506 12.5Q441 49 406 95.5Q371 142 352 173L338 173L338 -418ZM650 137Q755 137 825.5 193.5Q896 250 931.5 345.5Q967 441 967 558Q967 674 932 767.5Q897 861 826.5 916Q756 971 650 971Q547 971 477 919Q407 867 371.5 774.5Q336 682 336 558Q336 434 372 339Q408 244 478.5 190.5Q549 137 650 137Z" transform="translate(319.54 605.00) scale(0.014160 -0.014160)" fill="#C9CCD1"/>
  <path d="M158 -418L158 1118L332 1118L332 939L352 939Q371 969 405 1014.5Q439 1060 503 1096Q567 1132 676 1132Q816 1132 922.5 1062Q1029 992 1089.5 862.5Q1150 733 1150 556Q1150 378 1090 248Q1030 118 923.5 47Q817 -24 677 -24Q571 -24 506 12.5Q441 49 406 95.5Q371 142 352 173L338 173L338 -418ZM650 137Q755 137 825.5 193.5Q896 250 931.5 345.5Q967 441 967 558Q967 674 932 767.5Q897 861 826.5 916Q756 971 650 971Q547 971 477 919Q407 867 371.5 774.5Q336 682 336 558Q336 434 372 339Q408 244 478.5 190.5Q549 137 650 137Z" transform="translate(337.29 605.00) scale(0.014160 -0.014160)" fill="#C9CCD1"/>
  <path d="M628 -24Q466 -24 348.5 48Q231 120 167.5 249Q104 378 104 550Q104 722 166 853Q228 984 341.5 1058Q455 1132 607 1132Q696 1132 782.5 1102.5Q869 1073 939.5 1007.5Q1010 942 1052 835Q1094 728 1094 573L1094 498L226 498L226 650L997 650L913 594Q913 704 878.5 789.5Q844 875 776 923.5Q708 972 607 972Q506 972 434 922.5Q362 873 324 793.5Q286 714 286 623L286 522Q286 398 329 311.5Q372 225 449.5 180.5Q527 136 629 136Q695 136 749 155Q803 174 842 212.5Q881 251 902 308L1076 260Q1050 176 988 112Q926 48 834.5 12Q743 -24 628 -24Z" transform="translate(355.05 605.00) scale(0.014160 -0.014160)" fill="#C9CCD1"/>
  <path d="M158 0L158 1118L333 1118L334 868L320 868Q343 959 392.5 1018.5Q442 1078 508.5 1108Q575 1138 647 1138Q769 1138 844.5 1063Q920 988 942 866L918 866Q938 950 991 1011Q1044 1072 1119.5 1105Q1195 1138 1284 1138Q1381 1138 1461 1096Q1541 1054 1588.5 969Q1636 884 1636 754L1636 0L1456 0L1456 749Q1456 870 1388 922Q1320 974 1230 974Q1155 974 1100.5 942.5Q1046 911 1016.5 856Q987 801 987 730L987 0L807 0L807 767Q807 860 745 917Q683 974 588 974Q523 974 465.5 943.5Q408 913 373 853Q338 793 338 704L338 0Z" transform="translate(371.96 605.00) scale(0.014160 -0.014160)" fill="#C9CCD1"/>
  <path d="M628 -24Q466 -24 348.5 48Q231 120 167.5 249Q104 378 104 550Q104 722 166 853Q228 984 341.5 1058Q455 1132 607 1132Q696 1132 782.5 1102.5Q869 1073 939.5 1007.5Q1010 942 1052 835Q1094 728 1094 573L1094 498L226 498L226 650L997 650L913 594Q913 704 878.5 789.5Q844 875 776 923.5Q708 972 607 972Q506 972 434 922.5Q362 873 324 793.5Q286 714 286 623L286 522Q286 398 329 311.5Q372 225 449.5 180.5Q527 136 629 136Q695 136 749 155Q803 174 842 212.5Q881 251 902 308L1076 260Q1050 176 988 112Q926 48 834.5 12Q743 -24 628 -24Z" transform="translate(397.36 605.00) scale(0.014160 -0.014160)" fill="#C9CCD1"/>
  <path d="M338 670L338 0L158 0L158 1118L331 1118L332 847L307 847Q358 1002 452.5 1067Q547 1132 674 1132Q787 1132 872 1085.5Q957 1039 1004.5 945.5Q1052 852 1052 710L1052 0L872 0L872 695Q872 824 804.5 897Q737 970 620 970Q540 970 476 935Q412 900 375 833Q338 766 338 670Z" transform="translate(414.27 605.00) scale(0.014160 -0.014160)" fill="#C9CCD1"/>
  <path d="M598 1118L598 964L20 964L20 1118ZM188 1384L368 1384L368 290Q368 215 398.5 180.5Q429 146 500 146Q517 146 543.5 150Q570 154 592 158L629 6Q601 -4 565.5 -9Q530 -14 495 -14Q350 -14 269 62.5Q188 139 188 276Z" transform="translate(431.40 605.00) scale(0.014160 -0.014160)" fill="#C9CCD1"/>
  <path d="M409 0L70 1118L261 1118L397 630Q425 530 457 403.5Q489 277 520 117L489 117Q519 270 550 397Q581 524 610 630L744 1118L936 1118L1068 630Q1096 527 1126.5 400.5Q1157 274 1187 117L1155 117Q1187 272 1218.5 398.5Q1250 525 1279 630L1415 1118L1606 1118L1267 0L1088 0L943 506Q921 583 900 663Q879 743 859 827Q839 911 818 998L858 998Q838 912 817.5 827.5Q797 743 776 662Q755 581 733 506L588 0Z" transform="translate(449.04 605.00) scale(0.014160 -0.014160)" fill="#C9CCD1"/>
  <path d="M628 -24Q466 -24 348.5 48Q231 120 167.5 249Q104 378 104 550Q104 722 166 853Q228 984 341.5 1058Q455 1132 607 1132Q696 1132 782.5 1102.5Q869 1073 939.5 1007.5Q1010 942 1052 835Q1094 728 1094 573L1094 498L226 498L226 650L997 650L913 594Q913 704 878.5 789.5Q844 875 776 923.5Q708 972 607 972Q506 972 434 922.5Q362 873 324 793.5Q286 714 286 623L286 522Q286 398 329 311.5Q372 225 449.5 180.5Q527 136 629 136Q695 136 749 155Q803 174 842 212.5Q881 251 902 308L1076 260Q1050 176 988 112Q926 48 834.5 12Q743 -24 628 -24Z" transform="translate(472.25 605.00) scale(0.014160 -0.014160)" fill="#C9CCD1"/>
  <path d="M677 -24Q571 -24 506 12.5Q441 49 406 95.5Q371 142 352 173L332 173L332 0L158 0L158 1490L338 1490L338 939L352 939Q371 969 405 1014.5Q439 1060 503 1096Q567 1132 676 1132Q816 1132 922.5 1062Q1029 992 1089.5 862.5Q1150 733 1150 556Q1150 378 1090 248Q1030 118 923.5 47Q817 -24 677 -24ZM650 137Q755 137 825.5 193.5Q896 250 931.5 345.5Q967 441 967 558Q967 674 932 767.5Q897 861 826.5 916Q756 971 650 971Q547 971 477 919Q407 867 371.5 774.5Q336 682 336 558Q336 434 372 339Q408 244 478.5 190.5Q549 137 650 137Z" transform="translate(489.16 605.00) scale(0.014160 -0.014160)" fill="#C9CCD1"/>
  <path d="M295 573Q239 573 199.5 612.5Q160 652 160 708Q160 764 199.5 803.5Q239 843 295 843Q351 843 390.5 803.5Q430 764 430 708Q430 652 390.5 612.5Q351 573 295 573Z" transform="translate(515.07 605.00) scale(0.014160 -0.014160)" fill="#C9CCD1"/>
  <path d="M52 0L593 1490L813 1490L1361 0L1161 0L845 884Q816 966 777.5 1088.5Q739 1211 684 1401L720 1401Q666 1209 626.5 1084.5Q587 960 561 884L254 0ZM324 416L324 582L1089 582L1089 416Z" transform="translate(531.58 605.00) scale(0.014160 -0.014160)" fill="#C9CCD1"/>
  <path d="M537 -14Q424 -14 338.5 32.5Q253 79 205.5 173Q158 267 158 408L158 1118L338 1118L338 423Q338 294 406 221Q474 148 591 148Q671 148 734.5 183Q798 218 835 285.5Q872 353 872 448L872 1118L1053 1118L1053 0L879 0L879 271L903 271Q851 114 755.5 50Q660 -14 537 -14Z" transform="translate(551.59 605.00) scale(0.014160 -0.014160)" fill="#C9CCD1"/>
  <path d="M677 -24Q571 -24 506 12.5Q441 49 406 95.5Q371 142 352 173L332 173L332 0L158 0L158 1490L338 1490L338 939L352 939Q371 969 405 1014.5Q439 1060 503 1096Q567 1132 676 1132Q816 1132 922.5 1062Q1029 992 1089.5 862.5Q1150 733 1150 556Q1150 378 1090 248Q1030 118 923.5 47Q817 -24 677 -24ZM650 137Q755 137 825.5 193.5Q896 250 931.5 345.5Q967 441 967 558Q967 674 932 767.5Q897 861 826.5 916Q756 971 650 971Q547 971 477 919Q407 867 371.5 774.5Q336 682 336 558Q336 434 372 339Q408 244 478.5 190.5Q549 137 650 137Z" transform="translate(568.74 605.00) scale(0.014160 -0.014160)" fill="#C9CCD1"/>
  <path d="M471 -26Q365 -26 278.5 14Q192 54 141 131Q90 208 90 318Q90 414 128 474Q166 534 229.5 568.5Q293 603 370 620Q447 637 525 647Q625 660 688 667Q751 674 781.5 691Q812 708 812 749L812 755Q812 825 786 873.5Q760 922 708 948Q656 974 578 974Q498 974 441 949Q384 924 348.5 886.5Q313 849 295 810L122 867Q165 969 238 1026.5Q311 1084 399 1108Q487 1132 573 1132Q629 1132 700.5 1118.5Q772 1105 838.5 1065Q905 1025 948.5 946.5Q992 868 992 737L992 0L815 0L815 152L803 152Q784 113 742 71.5Q700 30 633 2Q566 -26 471 -26ZM502 133Q602 133 671 172Q740 211 776 273.5Q812 336 812 404L812 559Q801 546 764 535.5Q727 525 679.5 517Q632 509 587.5 503.5Q543 498 517 495Q452 487 395.5 467.5Q339 448 305 410.5Q271 373 271 309Q271 251 301 212Q331 173 383 153Q435 133 502 133Z" transform="translate(586.78 605.00) scale(0.014160 -0.014160)" fill="#C9CCD1"/>
  <path d="M611 -442Q487 -442 396.5 -410.5Q306 -379 246 -327Q186 -275 151 -214L297 -120Q321 -152 356.5 -191Q392 -230 452.5 -257.5Q513 -285 611 -285Q745 -285 831.5 -221Q918 -157 918 -19L918 205L901 205Q882 173 847.5 129Q813 85 748.5 51.5Q684 18 576 18Q442 18 335 81.5Q228 145 166 267Q104 389 104 564Q104 737 165 864.5Q226 992 333.5 1062Q441 1132 580 1132Q688 1132 752.5 1096.5Q817 1061 852 1015Q887 969 906 939L923 939L923 1118L1098 1118L1098 -29Q1098 -173 1033 -264.5Q968 -356 857.5 -399Q747 -442 611 -442ZM606 178Q708 178 778 224.5Q848 271 884 358.5Q920 446 920 568Q920 687 884.5 777.5Q849 868 779 919.5Q709 971 606 971Q500 971 429 916.5Q358 862 322.5 771Q287 680 287 568Q287 453 323 365Q359 277 430 227.5Q501 178 606 178Z" transform="translate(603.06 605.00) scale(0.014160 -0.014160)" fill="#C9CCD1"/>
  <path d="M338 670L338 0L158 0L158 1118L331 1118L332 847L307 847Q358 1002 452.5 1067Q547 1132 674 1132Q787 1132 872 1085.5Q957 1039 1004.5 945.5Q1052 852 1052 710L1052 0L872 0L872 695Q872 824 804.5 897Q737 970 620 970Q540 970 476 935Q412 900 375 833Q338 766 338 670Z" transform="translate(620.85 605.00) scale(0.014160 -0.014160)" fill="#C9CCD1"/>
  <path d="M628 -24Q466 -24 348.5 48Q231 120 167.5 249Q104 378 104 550Q104 722 166 853Q228 984 341.5 1058Q455 1132 607 1132Q696 1132 782.5 1102.5Q869 1073 939.5 1007.5Q1010 942 1052 835Q1094 728 1094 573L1094 498L226 498L226 650L997 650L913 594Q913 704 878.5 789.5Q844 875 776 923.5Q708 972 607 972Q506 972 434 922.5Q362 873 324 793.5Q286 714 286 623L286 522Q286 398 329 311.5Q372 225 449.5 180.5Q527 136 629 136Q695 136 749 155Q803 174 842 212.5Q881 251 902 308L1076 260Q1050 176 988 112Q926 48 834.5 12Q743 -24 628 -24Z" transform="translate(637.98 605.00) scale(0.014160 -0.014160)" fill="#C9CCD1"/>
  <path d="M295 573Q239 573 199.5 612.5Q160 652 160 708Q160 764 199.5 803.5Q239 843 295 843Q351 843 390.5 803.5Q430 764 430 708Q430 652 390.5 612.5Q351 573 295 573Z" transform="translate(663.05 605.00) scale(0.014160 -0.014160)" fill="#C9CCD1"/>
  <path d="M158 -418L158 1118L332 1118L332 939L352 939Q371 969 405 1014.5Q439 1060 503 1096Q567 1132 676 1132Q816 1132 922.5 1062Q1029 992 1089.5 862.5Q1150 733 1150 556Q1150 378 1090 248Q1030 118 923.5 47Q817 -24 677 -24Q571 -24 506 12.5Q441 49 406 95.5Q371 142 352 173L338 173L338 -418ZM650 137Q755 137 825.5 193.5Q896 250 931.5 345.5Q967 441 967 558Q967 674 932 767.5Q897 861 826.5 916Q756 971 650 971Q547 971 477 919Q407 867 371.5 774.5Q336 682 336 558Q336 434 372 339Q408 244 478.5 190.5Q549 137 650 137Z" transform="translate(679.56 605.00) scale(0.014160 -0.014160)" fill="#C9CCD1"/>
  <path d="M471 -26Q365 -26 278.5 14Q192 54 141 131Q90 208 90 318Q90 414 128 474Q166 534 229.5 568.5Q293 603 370 620Q447 637 525 647Q625 660 688 667Q751 674 781.5 691Q812 708 812 749L812 755Q812 825 786 873.5Q760 922 708 948Q656 974 578 974Q498 974 441 949Q384 924 348.5 886.5Q313 849 295 810L122 867Q165 969 238 1026.5Q311 1084 399 1108Q487 1132 573 1132Q629 1132 700.5 1118.5Q772 1105 838.5 1065Q905 1025 948.5 946.5Q992 868 992 737L992 0L815 0L815 152L803 152Q784 113 742 71.5Q700 30 633 2Q566 -26 471 -26ZM502 133Q602 133 671 172Q740 211 776 273.5Q812 336 812 404L812 559Q801 546 764 535.5Q727 525 679.5 517Q632 509 587.5 503.5Q543 498 517 495Q452 487 395.5 467.5Q339 448 305 410.5Q271 373 271 309Q271 251 301 212Q331 173 383 153Q435 133 502 133Z" transform="translate(697.60 605.00) scale(0.014160 -0.014160)" fill="#C9CCD1"/>
  <path d="M158 0L158 1118L332 1118L332 946L344 946Q375 1031 454.5 1082.5Q534 1134 634 1134Q654 1134 681.5 1133Q709 1132 725 1131L725 950Q717 952 685 956Q653 960 617 960Q537 960 473.5 926.5Q410 893 374 834.5Q338 776 338 700L338 0Z" transform="translate(713.88 605.00) scale(0.014160 -0.014160)" fill="#C9CCD1"/>
  <path d="M598 1118L598 964L20 964L20 1118ZM188 1384L368 1384L368 290Q368 215 398.5 180.5Q429 146 500 146Q517 146 543.5 150Q570 154 592 158L629 6Q601 -4 565.5 -9Q530 -14 495 -14Q350 -14 269 62.5Q188 139 188 276Z" transform="translate(725.25 605.00) scale(0.014160 -0.014160)" fill="#C9CCD1"/>
  <path d="M613 -24Q461 -24 346.5 48Q232 120 168 250Q104 380 104 552Q104 727 168 857.5Q232 988 346.5 1060Q461 1132 613 1132Q766 1132 881 1060Q996 988 1060 857.5Q1124 727 1124 552Q1124 380 1060 250Q996 120 881 48Q766 -24 613 -24ZM613 137Q726 137 799 195Q872 253 907 347.5Q942 442 942 552Q942 663 907 758.5Q872 854 799 912.5Q726 971 613 971Q501 971 429 912.5Q357 854 322 759Q287 664 287 552Q287 442 322 347.5Q357 253 429 195Q501 137 613 137Z" transform="translate(734.46 605.00) scale(0.014160 -0.014160)" fill="#C9CCD1"/>
  <path d="M537 -14Q424 -14 338.5 32.5Q253 79 205.5 173Q158 267 158 408L158 1118L338 1118L338 423Q338 294 406 221Q474 148 591 148Q671 148 734.5 183Q798 218 835 285.5Q872 353 872 448L872 1118L1053 1118L1053 0L879 0L879 271L903 271Q851 114 755.5 50Q660 -14 537 -14Z" transform="translate(751.85 605.00) scale(0.014160 -0.014160)" fill="#C9CCD1"/>
  <path d="M598 1118L598 964L20 964L20 1118ZM188 1384L368 1384L368 290Q368 215 398.5 180.5Q429 146 500 146Q517 146 543.5 150Q570 154 592 158L629 6Q601 -4 565.5 -9Q530 -14 495 -14Q350 -14 269 62.5Q188 139 188 276Z" transform="translate(768.99 605.00) scale(0.014160 -0.014160)" fill="#C9CCD1"/>
  <path d="M628 -24Q466 -24 348.5 48Q231 120 167.5 249Q104 378 104 550Q104 722 166 853Q228 984 341.5 1058Q455 1132 607 1132Q696 1132 782.5 1102.5Q869 1073 939.5 1007.5Q1010 942 1052 835Q1094 728 1094 573L1094 498L226 498L226 650L997 650L913 594Q913 704 878.5 789.5Q844 875 776 923.5Q708 972 607 972Q506 972 434 922.5Q362 873 324 793.5Q286 714 286 623L286 522Q286 398 329 311.5Q372 225 449.5 180.5Q527 136 629 136Q695 136 749 155Q803 174 842 212.5Q881 251 902 308L1076 260Q1050 176 988 112Q926 48 834.5 12Q743 -24 628 -24Z" transform="translate(786.64 605.00) scale(0.014160 -0.014160)" fill="#C9CCD1"/>
  <path d="M338 670L338 0L158 0L158 1118L331 1118L332 847L307 847Q358 1002 452.5 1067Q547 1132 674 1132Q787 1132 872 1085.5Q957 1039 1004.5 945.5Q1052 852 1052 710L1052 0L872 0L872 695Q872 824 804.5 897Q737 970 620 970Q540 970 476 935Q412 900 375 833Q338 766 338 670Z" transform="translate(803.54 605.00) scale(0.014160 -0.014160)" fill="#C9CCD1"/>
  <path d="M180 0L180 1490L1081 1490L1081 1322L370 1322L370 812L1013 812L1013 644L370 644L370 0Z" transform="translate(828.83 605.00) scale(0.014160 -0.014160)" fill="#C9CCD1"/>
  <path d="M158 0L158 1118L332 1118L332 946L344 946Q375 1031 454.5 1082.5Q534 1134 634 1134Q654 1134 681.5 1133Q709 1132 725 1131L725 950Q717 952 685 956Q653 960 617 960Q537 960 473.5 926.5Q410 893 374 834.5Q338 776 338 700L338 0Z" transform="translate(845.10 605.00) scale(0.014160 -0.014160)" fill="#C9CCD1"/>
  <path d="M471 -26Q365 -26 278.5 14Q192 54 141 131Q90 208 90 318Q90 414 128 474Q166 534 229.5 568.5Q293 603 370 620Q447 637 525 647Q625 660 688 667Q751 674 781.5 691Q812 708 812 749L812 755Q812 825 786 873.5Q760 922 708 948Q656 974 578 974Q498 974 441 949Q384 924 348.5 886.5Q313 849 295 810L122 867Q165 969 238 1026.5Q311 1084 399 1108Q487 1132 573 1132Q629 1132 700.5 1118.5Q772 1105 838.5 1065Q905 1025 948.5 946.5Q992 868 992 737L992 0L815 0L815 152L803 152Q784 113 742 71.5Q700 30 633 2Q566 -26 471 -26ZM502 133Q602 133 671 172Q740 211 776 273.5Q812 336 812 404L812 559Q801 546 764 535.5Q727 525 679.5 517Q632 509 587.5 503.5Q543 498 517 495Q452 487 395.5 467.5Q339 448 305 410.5Q271 373 271 309Q271 251 301 212Q331 173 383 153Q435 133 502 133Z" transform="translate(856.02 605.00) scale(0.014160 -0.014160)" fill="#C9CCD1"/>
  <path d="M338 670L338 0L158 0L158 1118L331 1118L332 847L307 847Q358 1002 452.5 1067Q547 1132 674 1132Q787 1132 872 1085.5Q957 1039 1004.5 945.5Q1052 852 1052 710L1052 0L872 0L872 695Q872 824 804.5 897Q737 970 620 970Q540 970 476 935Q412 900 375 833Q338 766 338 670Z" transform="translate(872.31 605.00) scale(0.014160 -0.014160)" fill="#C9CCD1"/>
  <path d="M613 -24Q461 -24 346.5 48Q232 120 168 250Q104 380 104 552Q104 727 168 857.5Q232 988 346.5 1060Q461 1132 613 1132Q694 1132 766 1111Q838 1090 897.5 1050.5Q957 1011 1000 953.5Q1043 896 1066 823L893 774Q881 817 856 853Q831 889 795.5 915.5Q760 942 714 956.5Q668 971 613 971Q501 971 429 912.5Q357 854 322 759Q287 664 287 552Q287 442 322 347.5Q357 253 429 195Q501 137 613 137Q669 137 716 152Q763 167 799.5 194.5Q836 222 861 260Q886 298 898 343L1070 294Q1048 219 1004.5 160.5Q961 102 901 60.5Q841 19 768 -2.5Q695 -24 613 -24Z" transform="translate(889.44 605.00) scale(0.014160 -0.014160)" fill="#C9CCD1"/>
  <path d="M628 -24Q466 -24 348.5 48Q231 120 167.5 249Q104 378 104 550Q104 722 166 853Q228 984 341.5 1058Q455 1132 607 1132Q696 1132 782.5 1102.5Q869 1073 939.5 1007.5Q1010 942 1052 835Q1094 728 1094 573L1094 498L226 498L226 650L997 650L913 594Q913 704 878.5 789.5Q844 875 776 923.5Q708 972 607 972Q506 972 434 922.5Q362 873 324 793.5Q286 714 286 623L286 522Q286 398 329 311.5Q372 225 449.5 180.5Q527 136 629 136Q695 136 749 155Q803 174 842 212.5Q881 251 902 308L1076 260Q1050 176 988 112Q926 48 834.5 12Q743 -24 628 -24Z" transform="translate(906.01 605.00) scale(0.014160 -0.014160)" fill="#C9CCD1"/>

  <!-- Pied droit Inter 600 -->
  <path d="M561 -23Q432 -23 333 14Q234 51 170.5 122Q107 193 88 294L331 340Q354 257 412.5 216.5Q471 176 566 176Q662 176 718.5 214.5Q775 253 775 310Q775 358 738 389.5Q701 421 624 438L433 479Q275 513 197 591Q119 669 119 792Q119 896 176 972Q233 1048 334.5 1090Q436 1132 570 1132Q697 1132 788.5 1096Q880 1060 936.5 995.5Q993 931 1015 844L783 798Q764 857 714 897.5Q664 938 573 938Q490 938 434.5 901.5Q379 865 379 808Q379 759 416 727Q453 695 538 677L728 637Q887 603 964 528Q1041 453 1041 335Q1041 229 980 148.5Q919 68 810.5 22.5Q702 -23 561 -23Z" transform="translate(935.98 605.00) scale(0.014648 -0.014648)" fill="#C9A24B"/>
  <path d="M376 352L376 667L417 667L820 1118L1125 1118L631 567L577 567ZM138 0L138 1490L398 1490L398 0ZM839 0L473 509L649 693L1151 0Z" transform="translate(952.46 605.00) scale(0.014648 -0.014648)" fill="#C9A24B"/>
  <path d="M450 -23Q344 -23 259 15.5Q174 54 125 129Q76 204 76 314Q76 409 111.5 471Q147 533 207.5 570Q268 607 344 626Q420 645 502 653Q599 664 660 672Q721 680 749.5 698Q778 716 778 754L778 759Q778 814 756 852.5Q734 891 690.5 911.5Q647 932 583 932Q518 932 470.5 912Q423 892 393 860Q363 828 349 791L108 840Q141 939 210 1003.5Q279 1068 374.5 1100Q470 1132 582 1132Q661 1132 741.5 1113.5Q822 1095 889 1051Q956 1007 997 933Q1038 859 1038 747L1038 0L789 0L789 154L779 154Q754 107 710.5 66.5Q667 26 602.5 1.5Q538 -23 450 -23ZM517 170Q598 170 656.5 202Q715 234 747.5 286.5Q780 339 780 401L780 533Q767 523 736.5 514Q706 505 668.5 498Q631 491 594.5 486Q558 481 533 478Q475 470 428 452Q381 434 354.5 401.5Q328 369 328 317Q328 269 352.5 236.5Q377 204 419.5 187Q462 170 517 170Z" transform="translate(969.55 605.00) scale(0.014648 -0.014648)" fill="#C9A24B"/>
  <path d="M620 -442Q486 -442 386.5 -408Q287 -374 223.5 -315.5Q160 -257 132 -183L352 -104Q370 -135 401.5 -168Q433 -201 485.5 -222.5Q538 -244 619 -244Q740 -244 813 -187.5Q886 -131 886 -11L886 200L864 200Q845 160 808 117.5Q771 75 708.5 46Q646 17 549 17Q421 17 316.5 77.5Q212 138 150.5 259Q89 380 89 562Q89 746 151 873Q213 1000 317.5 1066Q422 1132 551 1132Q650 1132 714 1099Q778 1066 816 1019.5Q854 973 874 933L888 933L888 1118L1143 1118L1143 -3Q1143 -152 1075 -249.5Q1007 -347 889 -394.5Q771 -442 620 -442ZM622 222Q707 222 766 262.5Q825 303 856 380Q887 457 887 564Q887 670 856.5 749.5Q826 829 767 873.5Q708 918 622 918Q534 918 474.5 871.5Q415 825 385 745.5Q355 666 355 564Q355 461 385.5 384Q416 307 475.5 264.5Q535 222 622 222Z" transform="translate(986.77 605.00) scale(0.014648 -0.014648)" fill="#C9A24B"/>
  <path d="M632 -23Q463 -23 341.5 48Q220 119 154.5 248Q89 377 89 552Q89 725 153.5 855Q218 985 336.5 1058.5Q455 1132 615 1132Q717 1132 809.5 1099Q902 1066 973.5 997Q1045 928 1085.5 821.5Q1126 715 1126 568L1126 486L212 486L212 663L997 663L875 611Q875 705 846 776.5Q817 848 759.5 888Q702 928 616 928Q530 928 470 887.5Q410 847 378.5 779.5Q347 712 347 629L347 507Q347 401 383 328Q419 255 484 218Q549 181 635 181Q692 181 738.5 197.5Q785 214 819 246.5Q853 279 870 326L1109 277Q1082 187 1017 119.5Q952 52 854.5 14.5Q757 -23 632 -23Z" transform="translate(1005.54 605.00) scale(0.014648 -0.014648)" fill="#C9A24B"/>
  <path d="M398 655L398 0L138 0L138 1118L384 1118L388 842L367 842Q414 987 505 1059.5Q596 1132 733 1132Q848 1132 934 1083Q1020 1034 1067.5 940Q1115 846 1115 711L1115 0L855 0L855 671Q855 783 797 847Q739 911 637 911Q568 911 514 881Q460 851 429 793.5Q398 736 398 655Z" transform="translate(1023.28 605.00) scale(0.014648 -0.014648)" fill="#C9A24B"/>
  <path d="M623 -23Q460 -23 340 49.5Q220 122 154.5 251.5Q89 381 89 553Q89 727 154.5 857.5Q220 988 340 1060Q460 1132 623 1132Q716 1132 796 1108Q876 1084 939 1038.5Q1002 993 1044.5 928Q1087 863 1105 781L862 730Q851 773 830.5 808.5Q810 844 780 869Q750 894 711 907.5Q672 921 625 921Q534 921 474 872.5Q414 824 384 741.5Q354 659 354 554Q354 451 384 368Q414 285 474 236.5Q534 188 625 188Q673 188 712.5 202Q752 216 782.5 242Q813 268 834 305Q855 342 865 387L1108 336Q1090 252 1047.5 186Q1005 120 941.5 73.5Q878 27 797.5 2Q717 -23 623 -23Z" transform="translate(1041.64 605.00) scale(0.014648 -0.014648)" fill="#C9A24B"/>
  <path d="M632 -23Q463 -23 341.5 48Q220 119 154.5 248Q89 377 89 552Q89 725 153.5 855Q218 985 336.5 1058.5Q455 1132 615 1132Q717 1132 809.5 1099Q902 1066 973.5 997Q1045 928 1085.5 821.5Q1126 715 1126 568L1126 486L212 486L212 663L997 663L875 611Q875 705 846 776.5Q817 848 759.5 888Q702 928 616 928Q530 928 470 887.5Q410 847 378.5 779.5Q347 712 347 629L347 507Q347 401 383 328Q419 255 484 218Q549 181 635 181Q692 181 738.5 197.5Q785 214 819 246.5Q853 279 870 326L1109 277Q1082 187 1017 119.5Q952 52 854.5 14.5Q757 -23 632 -23Z" transform="translate(1059.12 605.00) scale(0.014648 -0.014648)" fill="#C9A24B"/>
  <path d="M326 -17Q259 -17 212.5 29Q166 75 166 143Q166 210 212.5 256Q259 302 326 302Q394 302 440.5 256Q487 210 487 143Q487 75 440.5 29Q394 -17 326 -17Z" transform="translate(1076.87 605.00) scale(0.014648 -0.014648)" fill="#C9A24B"/>
  <path d="M726 1118L726 914L20 914L20 1118ZM225 0L225 1225Q225 1337 271.5 1411Q318 1485 397.5 1522.5Q477 1560 572 1560Q641 1560 694 1549Q747 1538 772 1529L719 1327Q702 1332 677.5 1337.5Q653 1343 620 1343Q547 1343 515.5 1307Q484 1271 484 1205L484 0Z" transform="translate(1086.43 605.00) scale(0.014648 -0.014648)" fill="#C9A24B"/>
  <path d="M138 0L138 1118L390 1118L390 931L402 931Q432 1028 507 1080.5Q582 1133 678 1133Q700 1133 727 1131Q754 1129 773 1126L773 887Q757 892 721 896Q685 900 650 900Q578 900 520.5 869Q463 838 430.5 783.5Q398 729 398 658L398 0Z" transform="translate(1098.09 605.00) scale(0.014648 -0.014648)" fill="#C9A24B"/>
</svg>
